<svg width="38" height="38" viewBox="0 0 38 38" fill="none" xmlns="http://www.w3.org/2000/svg">
<path d="M30.0833 4.75H7.91667C6.17025 4.75 4.75 6.17025 4.75 7.91667L17.3232 22.1667H23.75V25.3333H20.0244C21.0488 26.6364 22.3028 28.9148 23.0138 31.6667H18.3952C15.8302 26.7029 10.7081 21.9592 4.75 17.2884V30.0833C4.75 31.8297 6.17025 33.25 7.91667 33.25H15.6465L16.4382 34.8333H26.9167L26.6095 33.25H30.0833C31.8298 33.25 33.25 31.8297 33.25 30.0833V7.91667C33.25 6.17025 31.8298 4.75 30.0833 4.75ZM23.75 11.0833H14.25V7.91667H23.75V11.0833Z" fill="white"/>
</svg>
