<svg width="38" height="38" viewBox="0 0 38 38" fill="none" xmlns="http://www.w3.org/2000/svg">
<path d="M9.49998 3.16663C7.7504 3.16663 6.33331 4.58371 6.33331 6.33329V11.0833H31.6666V6.33329C31.6666 4.58371 30.2496 3.16663 28.5 3.16663H9.49998ZM6.33331 14.25V23.75H19.9586C21.4011 20.9316 24.3263 19 27.7083 19C29.1349 19 30.4776 19.3506 31.6666 19.9586V14.25H6.33331ZM27.7083 22.1666C24.6477 22.1666 22.1666 24.6477 22.1666 27.7083C22.1666 30.7689 24.6477 33.25 27.7083 33.25C28.4446 33.25 29.1436 33.0999 29.7864 32.8387L34.9477 38H38V34.9477L32.8387 29.7864C33.0983 29.1436 33.25 28.4445 33.25 27.7083C33.25 24.6477 30.7689 22.1666 27.7083 22.1666ZM26.9166 25.3333C27.7906 25.3333 28.5 26.0426 28.5 26.9166C28.5 27.7906 27.7906 28.5 26.9166 28.5C26.0426 28.5 25.3333 27.7906 25.3333 26.9166C25.3333 26.0426 26.0426 25.3333 26.9166 25.3333ZM6.33331 26.9166V31.6666C6.33331 33.4162 7.7504 34.8333 9.49998 34.8333H22.7109C20.4689 33.2579 19 30.6565 19 27.7083C19 27.4407 19.0164 27.1779 19.0402 26.9166H6.33331Z" fill="white"/>
</svg>
