<svg width="38" height="38" viewBox="0 0 38 38" fill="none" xmlns="http://www.w3.org/2000/svg">
<g clip-path="url(#clip0_581_63)">
<path d="M12.6667 6.33337C5.6715 6.33337 0 12.0049 0 19C0 25.9952 5.6715 31.6667 12.6667 31.6667C19.6618 31.6667 25.3333 25.9952 25.3333 19C25.3333 12.0049 19.6618 6.33337 12.6667 6.33337ZM19 6.33337C18.4633 6.33337 17.936 6.37669 17.4167 6.44161C23.6629 7.22219 28.5 12.5416 28.5 19C28.5 25.4585 23.6629 30.7779 17.4167 31.5585C17.936 31.6234 18.4633 31.6667 19 31.6667C25.9952 31.6667 31.6667 25.9952 31.6667 19C31.6667 12.0049 25.9952 6.33337 19 6.33337ZM25.3333 6.33337C24.7966 6.33337 24.2693 6.37669 23.75 6.44161C29.9963 7.22219 34.8333 12.5416 34.8333 19C34.8333 25.4585 29.9963 30.7779 23.75 31.5585C24.2693 31.6234 24.7966 31.6667 25.3333 31.6667C32.3285 31.6667 38 25.9952 38 19C38 12.0049 32.3285 6.33337 25.3333 6.33337ZM12.2121 8.86609H13.8078V11.1731C14.316 11.2696 17.16 11.9183 17.16 16.0777H14.1665C14.1665 13.9038 13.2432 13.5604 12.8553 13.5604C12.6431 13.5604 11.6616 13.616 11.6616 15.4004C11.6632 18.5148 17.1383 17.5436 17.1383 22.6182C17.1383 26.3042 14.111 26.8038 13.5758 26.8703V28.9763H11.9894V26.8703C11.4954 26.8022 8.17334 26.4365 8.17334 21.8575H11.1668C11.1668 24.5618 12.5596 24.4489 12.7718 24.4489C13.0046 24.4489 14.1479 24.4069 14.1479 22.6399C14.1479 19.1106 8.67122 20.678 8.67122 15.3881C8.67122 11.7622 11.6753 11.1948 12.2121 11.1267V8.86609Z" fill="white"/>
</g>
<defs>
<clipPath id="clip0_581_63">
<rect width="38" height="38" fill="white"/>
</clipPath>
</defs>
</svg>
