<svg width="40" height="40" viewBox="0 0 40 40" fill="none" xmlns="http://www.w3.org/2000/svg">
<path d="M32.7083 3.34981C32.494 3.31833 32.2704 3.3277 32.0475 3.38562L6.65037 10.0002H19.8795L29.8079 7.41556C30.2296 8.03556 30.9053 8.43455 31.6536 8.49955L32.0475 10.0002H35.4915L34.0788 4.58028C33.905 3.91278 33.3513 3.44426 32.7083 3.34981ZM4.99998 13.3335C4.55797 13.3336 4.13407 13.5092 3.82152 13.8217C3.50897 14.1343 3.33336 14.5582 3.33331 15.0002V31.6669C3.33336 32.1089 3.50897 32.5328 3.82152 32.8453C4.13407 33.1579 4.55797 33.3335 4.99998 33.3335H35C35.442 33.3335 35.8659 33.1579 36.1784 32.8453C36.491 32.5328 36.6666 32.1089 36.6666 31.6669V15.0002C36.6666 14.5582 36.491 14.1343 36.1784 13.8217C35.8659 13.5092 35.442 13.3336 35 13.3335H4.99998ZM8.18683 16.6669H31.8131C31.9375 17.0174 32.1385 17.3357 32.4015 17.5987C32.6645 17.8617 32.9828 18.0627 33.3333 18.187V28.48C32.9828 28.6044 32.6645 28.8054 32.4015 29.0684C32.1385 29.3313 31.9375 29.6497 31.8131 30.0002H8.18683C8.06247 29.6497 7.86148 29.3313 7.59849 29.0684C7.33551 28.8054 7.01716 28.6044 6.66665 28.48V18.187C7.01716 18.0627 7.33551 17.8617 7.59849 17.5987C7.86148 17.3357 8.06247 17.0174 8.18683 16.6669ZM20 18.3335C18.6739 18.3335 17.4021 18.8603 16.4644 19.798C15.5268 20.7357 15 22.0075 15 23.3335C15 24.6596 15.5268 25.9314 16.4644 26.8691C17.4021 27.8067 18.6739 28.3335 20 28.3335C21.3261 28.3335 22.5978 27.8067 23.5355 26.8691C24.4732 25.9314 25 24.6596 25 23.3335C25 22.0075 24.4732 20.7357 23.5355 19.798C22.5978 18.8603 21.3261 18.3335 20 18.3335ZM11.6666 21.6669C10.7466 21.6669 9.99998 22.4119 9.99998 23.3335C9.99998 24.2552 10.7466 25.0002 11.6666 25.0002C12.5866 25.0002 13.3333 24.2552 13.3333 23.3335C13.3333 22.4119 12.5866 21.6669 11.6666 21.6669ZM28.3333 21.6669C27.4133 21.6669 26.6666 22.4119 26.6666 23.3335C26.6666 24.2552 27.4133 25.0002 28.3333 25.0002C29.2533 25.0002 30 24.2552 30 23.3335C30 22.4119 29.2533 21.6669 28.3333 21.6669Z" fill="white"/>
</svg>
