<svg width="40" height="40" viewBox="0 0 40 40" fill="none" xmlns="http://www.w3.org/2000/svg">
<path d="M26.6667 3.33301C24.6005 3.33301 22.7174 3.73049 21.2077 4.48535C19.698 5.24022 18.3333 6.5118 18.3333 8.33301V14.2933C16.9052 13.6731 15.2014 13.333 13.3333 13.333C11.2672 13.333 9.38408 13.7305 7.87435 14.4854C6.36462 15.2402 5 16.5118 5 18.333V24.9997V31.6663C5 33.4876 6.36454 34.7592 7.87435 35.514C9.38415 36.2688 11.2674 36.6663 13.3333 36.6663C15.3993 36.6663 17.2825 36.2688 18.7923 35.514C20.1072 34.8566 21.3092 33.8065 21.5983 32.3434C23.0398 32.9829 24.7692 33.333 26.6667 33.333C28.7326 33.333 30.6158 32.9354 32.1257 32.1807C33.6355 31.4259 35 30.1543 35 28.333V14.9997V8.33301C35 6.5118 33.6354 5.24022 32.1257 4.48535C30.6159 3.73049 28.7328 3.33301 26.6667 3.33301ZM21.6667 12.3727C23.0948 12.9929 24.7986 13.333 26.6667 13.333C28.5347 13.333 30.2385 12.9929 31.6667 12.3727V14.9997C31.6667 15.0201 31.5379 15.4141 30.6348 15.8656C29.7317 16.317 28.2824 16.6663 26.6667 16.6663C25.0509 16.6663 23.6017 16.317 22.6986 15.8656C21.7955 15.4141 21.6667 15.0201 21.6667 14.9997V12.3727ZM21.6667 19.0394C23.0949 19.6595 24.7988 19.9997 26.6667 19.9997C28.5345 19.9997 30.2385 19.6595 31.6667 19.0394V21.6663C31.6667 21.6867 31.5379 22.0807 30.6348 22.5322C29.7317 22.9837 28.2824 23.333 26.6667 23.333C25.0509 23.333 23.6017 22.9837 22.6986 22.5322C21.7955 22.0807 21.6667 21.6867 21.6667 21.6663V19.0394ZM8.33333 22.3727C9.76147 22.9929 11.4653 23.333 13.3333 23.333C15.2014 23.333 16.9052 22.9929 18.3333 22.3727V24.9997C18.3333 25.0201 18.2046 25.4141 17.3014 25.8656C16.3983 26.317 14.9491 26.6663 13.3333 26.6663C11.7176 26.6663 10.2683 26.317 9.36523 25.8656C8.46212 25.4141 8.33333 25.0201 8.33333 24.9997V22.3727ZM21.6667 25.7061C23.0949 26.3262 24.7988 26.6663 26.6667 26.6663C28.5345 26.6663 30.2385 26.3262 31.6667 25.7061V28.333C31.6667 28.3534 31.5379 28.7474 30.6348 29.1989C29.7317 29.6504 28.2824 29.9997 26.6667 29.9997C25.0509 29.9997 23.6017 29.6504 22.6986 29.1989C21.7955 28.7474 21.6667 28.3534 21.6667 28.333V25.7061ZM18.3333 29.0361V31.6663C18.3333 31.6867 18.2046 32.0807 17.3014 32.5322C16.3983 32.9837 14.9491 33.333 13.3333 33.333C11.7176 33.333 10.2683 32.9837 9.36523 32.5322C8.46212 32.0807 8.33333 31.6867 8.33333 31.6663V29.0394C9.76154 29.6595 11.4655 29.9997 13.3333 29.9997C15.2021 29.9997 16.9051 29.6573 18.3333 29.0361Z" fill="white"/>
</svg>
