<svg width="40" height="40" viewBox="0 0 40 40" fill="none" xmlns="http://www.w3.org/2000/svg">
<path d="M26.1035 2.30664V4.17014H22.3765V9.76064V19.0781H26.1035V20.9416H29.8305V19.0781H30.7623C31.7698 19.0758 32.7493 18.7468 33.5541 18.1407C34.3589 17.5346 34.9454 16.6839 35.2259 15.7163C35.5064 14.7486 35.4656 13.7161 35.1097 12.7736C34.7537 11.8311 34.1019 11.0293 33.2518 10.4886C33.4918 9.85742 33.5917 9.18164 33.5447 8.50805C33.4976 7.83445 33.3047 7.17914 32.9793 6.58749C32.6538 5.99584 32.2037 5.48201 31.66 5.08157C31.1163 4.68114 30.4921 4.40368 29.8305 4.26841V2.30664H26.1035ZM26.1035 7.89714H28.8988C29.1459 7.89231 29.3848 7.98585 29.563 8.15717C29.7411 8.3285 29.8439 8.56357 29.8487 8.81069C29.8536 9.0578 29.76 9.29671 29.5887 9.47486C29.4174 9.65301 29.1823 9.75581 28.9352 9.76064H26.1035V7.89714ZM26.1035 13.4876H28.8988H30.7623C31.0094 13.4876 31.2464 13.5858 31.4211 13.7605C31.5959 13.9353 31.694 14.1723 31.694 14.4194C31.694 14.6665 31.5959 14.9035 31.4211 15.0782C31.2464 15.253 31.0094 15.3511 30.7623 15.3511H26.1035V13.4876ZM9.24834 19.0781C8.68451 19.0849 8.12496 19.1769 7.58866 19.3511L0 21.1273V34.5539L7.45399 32.1226L22.6532 37.4438C23.2549 37.6535 23.8937 37.7359 24.529 37.6858C25.1643 37.6356 25.7823 37.4541 26.3438 37.1526L39.9997 29.8588L37.8014 25.1709L24.3856 31.3183L23.6868 30.4156L24.2437 29.1927C24.4454 28.7429 24.5558 28.2575 24.5686 27.7647C24.5814 27.2719 24.4963 26.7814 24.3183 26.3217C24.1402 25.862 23.8727 25.4422 23.5313 25.0866C23.1899 24.731 22.7813 24.4467 22.3292 24.2501L11.4139 19.4785H11.3775C10.7223 19.2162 10.0233 19.0803 9.31749 19.0781C9.29444 19.078 9.27139 19.078 9.24834 19.0781Z" fill="white"/>
</svg>
