<svg width="50" height="50" viewBox="0 0 50 50" fill="none" xmlns="http://www.w3.org/2000/svg">
<g clip-path="url(#clip0_578_2168)">
<path fill-rule="evenodd" clip-rule="evenodd" d="M38.9628 14.4885H50V22.4455H38.9628C39.2101 21.1566 39.34 19.8278 39.34 18.4665C39.34 17.1052 39.2132 15.7984 38.9617 14.4875L38.9628 14.4885ZM36.7119 28.6441V49.9991H28.1164V37.0495C31.7347 35.1483 34.7294 32.2176 36.7119 28.6441Z" fill="white"/>
<path fill-rule="evenodd" clip-rule="evenodd" d="M18.4215 0C25.24 0 31.1918 3.71324 34.3774 9.23215L27.3702 13.2878C25.5836 10.1922 22.2451 8.1103 18.4215 8.1103C12.7148 8.1103 8.08953 12.7468 8.08953 18.4674C8.08953 24.1881 12.7148 28.8245 18.4215 28.8245C22.7209 28.8245 26.4073 26.1911 27.9634 22.4453H14.8315V14.4884H36.4134C36.6942 15.77 36.843 17.1008 36.843 18.4674C36.843 28.666 28.5952 36.9339 18.4215 36.9339C8.24776 36.9339 0 28.6649 0 18.4664C0 8.26786 8.24776 0 18.4215 0Z" fill="#0DE6BE"/>
</g>
<defs>
<clipPath id="clip0_578_2168">
<rect width="50" height="50" fill="white"/>
</clipPath>
</defs>
</svg>
