<svg width="38" height="38" viewBox="0 0 38 38" fill="none" xmlns="http://www.w3.org/2000/svg">
<path d="M9.50002 3.16663C7.7536 3.16663 6.33335 4.58688 6.33335 6.33329V7.91663H4.75002C3.87602 7.91663 3.16669 8.62596 3.16669 9.49996C3.16669 10.374 3.87602 11.0833 4.75002 11.0833H6.33335V14.25H4.75002C3.87602 14.25 3.16669 14.9593 3.16669 15.8333C3.16669 16.7073 3.87602 17.4166 4.75002 17.4166H6.33335V20.5833H4.75002C3.87602 20.5833 3.16669 21.2926 3.16669 22.1666C3.16669 23.0406 3.87602 23.75 4.75002 23.75H6.33335V26.9166H4.75002C3.87602 26.9166 3.16669 27.626 3.16669 28.5C3.16669 29.374 3.87602 30.0833 4.75002 30.0833H6.33335V31.6666C6.33335 33.413 7.7536 34.8333 9.50002 34.8333H28.5C30.2464 34.8333 31.6667 33.413 31.6667 31.6666V6.33329C31.6667 4.58688 30.2464 3.16663 28.5 3.16663H9.50002ZM12.6667 9.49996H25.3334V14.25H12.6667V9.49996ZM12.6667 17.4166H25.3334V20.5833H12.6667V17.4166ZM12.6667 23.75H25.3334V26.9166H12.6667V23.75Z" fill="white"/>
</svg>
