<svg width="38" height="38" viewBox="0 0 38 38" fill="none" xmlns="http://www.w3.org/2000/svg">
<path d="M4.75 4.75V11.0833H7.91667V7.91667H11.0833V4.75H4.75ZM26.9167 4.75V7.91667H30.0833V11.0833H33.25V4.75H26.9167ZM19 7.91667C16.3812 7.91667 14.25 10.0478 14.25 12.6667C14.25 15.2855 16.3812 17.4167 19 17.4167C21.6188 17.4167 23.75 15.2855 23.75 12.6667C23.75 10.0478 21.6188 7.91667 19 7.91667ZM19 19C16.3574 19 11.0833 20.3253 11.0833 22.9583V26.9167H26.9167V22.9583C26.9167 20.3253 21.6426 19 19 19ZM4.75 26.9167V33.25H11.0833V30.0833H7.91667V26.9167H4.75ZM30.0833 26.9167V30.0833H26.9167V33.25H33.25V26.9167H30.0833Z" fill="white"/>
</svg>
