<svg width="38" height="38" viewBox="0 0 38 38" fill="none" xmlns="http://www.w3.org/2000/svg">
<path d="M3.16669 3.16663V19H25.3334V9.49996H28.5C29.3724 9.49996 30.0834 10.2109 30.0834 11.0833V14.25H28.5V23.75H30.0834V34.8333H33.25V23.75H34.8334V14.25H33.25V11.0833C33.25 8.46446 31.1189 6.33329 28.5 6.33329H25.3334V3.16663H3.16669ZM14.25 9.49996C16.8689 9.49996 19 11.6311 19 14.25H15.8334C15.8334 13.3775 15.1224 12.6666 14.25 12.6666C13.3776 12.6666 12.6667 13.3775 12.6667 14.25H9.50002C9.50002 11.6311 11.6312 9.49996 14.25 9.49996ZM3.16669 22.1666V34.8333H25.3334V22.1666H3.16669ZM11.0834 26.9166C11.9574 26.9166 12.6667 27.626 12.6667 28.5C12.6667 29.374 11.9574 30.0833 11.0834 30.0833C10.2094 30.0833 9.50002 29.374 9.50002 28.5C9.50002 27.626 10.2094 26.9166 11.0834 26.9166ZM17.4167 26.9166C18.2907 26.9166 19 27.626 19 28.5C19 29.374 18.2907 30.0833 17.4167 30.0833C16.5427 30.0833 15.8334 29.374 15.8334 28.5C15.8334 27.626 16.5427 26.9166 17.4167 26.9166Z" fill="white"/>
</svg>
